:SAMPLES-PER-SECOND 30
:FULLY-SPECIFIED
:DEGREES
312
root  34.78127427 36.54533146 -14.37890961 8.445930481 -4.503112316 2.927080631
lowerback  -8.2479496 -0.6475970149 -0.6711788774
upperback  -3.864660025 -0.3449209929 -3.422519922
thorax  0.6099339724 -0.01247359999 -3.185930014
lowerneck  -7.900259972 -12.97646332 -9.903809547
upperneck  12.42399979 -17.65600204 10.44750023
head  6.902030468 -8.209763527 3.198414803
lclavicle  0 -4.497500157e-015 -2.743230041e-014
lhumerus  -47.08250046 30.12170029 63.60770035
lradius  -0.01841271855 -6.507048965e-006 30.3029995
lwrist  3.192251654e-007 -3.790274832e-007 -27.51819992
lhand  -4.40528899e-031 -36.72019958 -10.74870014
lfingers  90 7.125020027 -90
lthumb  94.74723931 -25.58948939 100.8834137
rclavicle  0 -4.497500157e-015 -2.743230041e-014
rhumerus  -50.64479828 -37.53530121 -50.88770294
rradius  -5.16745672e-007 2.214343908e-008 51.49689865
rwrist  0.0003490542294 -0.002273720223 -159.072998
rhand  -1.77225396e-031 4.980480194 -5.99751997
rfingers  -90 -7.125020027 -90
rthumb  -84.14106238 -9.888946379 -59.1412912
rfemur  -10.11466789 16.00338936 13.43225861
rtibia  -0.00607299991 -0.5352732539 18.21494293
rfoot  1.399628162 -21.26388931 -35.82639313
rtoes  3.93757099 19.62413804 -101.5823511
lfemur  -4.731786251 -15.7425518 -21.01622009
ltibia  4.565259933 -0.1850272864 10.76805496
lfoot  0.1884539425 -23.14150238 36.0054512
ltoes  -8.523213922 -18.1606049 -115.679545
313
root  34.78219941 36.54588414 -14.37633695 8.461759567 -4.540765762 2.925080538
lowerback  -8.233529091 -0.6451599598 -0.6761363149
upperback  -3.874069929 -0.3423179984 -3.412250042
thorax  0.5925229788 -0.01123389974 -3.172070026
lowerneck  -7.89659977 -12.97649956 -9.906860352
upperneck  12.46759987 -17.65469933 10.41460037
head  6.912220001 -8.211409569 3.188369989
lclavicle  0 -4.497500157e-015 -2.743230041e-014
lhumerus  -47.05889893 30.10379982 63.63650131
lradius  -0.01704113372 -6.507048965e-006 30.26169968
lwrist  3.192251654e-007 -3.790274832e-007 -27.5237999
lhand  -4.405753553e-031 -36.72829819 -10.70909977
lfingers  90 7.125020027 -90
lthumb  94.74275181 -25.55034973 100.8884889
rclavicle  0 -4.497500157e-015 -2.743230041e-014
rhumerus  -50.60369873 -38.55780029 -50.3022995
rradius  -5.16745672e-007 2.214343908e-008 49.57720184
rwrist  0.0003490542294 -0.002273720223 -157.1300049
rhand  -1.772430711e-031 5.045619965 -6.099969864
rfingers  -90 -7.125020027 -90
rthumb  -84.17775113 -9.804532075 -59.08669841
rfemur  -10.1318512 16.00905418 13.42004013
rtibia  9.553973359e-005 -0.5423566699 18.20932961
rfoot  1.411617756 -21.27283287 -35.78475952
rtoes  3.95887585 19.62001361 -101.6457934
lfemur  -4.730357647 -15.69278431 -21.02594948
ltibia  4.574321747 -0.1873249561 10.75053406
lfoot  0.1823211163 -23.12763596 35.98046112
ltoes  -8.555022688 -18.14603846 -115.7816398
314
root  34.783488 36.54672518 -14.37359457 8.486416817 -4.592464447 2.939035416
lowerback  -8.237220764 -0.6285200119 -0.6571284533
upperback  -3.869869947 -0.3228200078 -3.4056499
thorax  0.599767983 -0.002192389918 -3.174299955
lowerneck  -7.884130001 -12.97710037 -9.909399986
upperneck  12.49790001 -17.65550041 10.40030003
head  6.918749809 -8.21228981 3.184429884
lclavicle  0 -4.497500157e-015 -2.743230041e-014
lhumerus  -47.00680161 30.03930092 63.7112999
lradius  -0.0157330893 -6.507048965e-006 30.25110054
lwrist  3.192251654e-007 -3.790274832e-007 -27.46709824
lhand  -4.404904877e-031 -36.71350098 -10.63700008
lfingers  90 7.125020027 -90
lthumb  94.72076683 -25.48013175 100.8661932
rclavicle  0 -4.497500157e-015 -2.743230041e-014
rhumerus  -50.66759872 -39.56290054 -49.65240097
rradius  -5.16745672e-007 2.214343908e-008 47.62969971
rwrist  0.0003490542294 -0.002273720223 -155.845993
rhand  -0 5.396140099 -6.077469826
rfingers  -90 -7.125020027 -90
rthumb  -84.07569737 -9.843041964 -58.74171509
rfemur  -10.18722916 16.0328083 13.38722515
rtibia  0.001818468678 -0.5555069447 18.2502861
rfoot  1.395960212 -21.29952431 -35.76488495
rtoes  3.912524714 19.62895704 -101.5077838
lfemur  -4.711025715 -15.62774849 -21.0604763
ltibia  4.618262768 -0.1789417863 10.67131901
lfoot  0.1903484911 -23.1073494 36.00163651
ltoes  -8.578931997 -18.13504494 -115.8584325
315
root  34.78501387 36.54798973 -14.37169924 8.51937294 -4.64125061 2.934871674
lowerback  -8.281330109 -0.6461959481 -0.7492628098
upperback  -3.826349974 -0.3441109955 -3.34416008
thorax  0.669408977 -0.01347710006 -3.060590029
lowerneck  -7.923679829 -12.95059967 -9.879240036
upperneck  12.4776001 -17.60939789 10.33010006
head  6.904570103 -8.194869995 3.162620068
lclavicle  0 -4.497500157e-015 -2.743230041e-014
lhumerus  -46.96680069 30.19370079 63.74169922
lradius  -0.01448284555 -6.507048965e-006 30.20730019
lwrist  3.192251654e-007 -3.790274832e-007 -27.55599976
lhand  -4.403787383e-031 -36.69400024 -10.61419964
lfingers  90 7.125020027 -90
lthumb  94.70686399 -25.45830506 100.8432726
rclavicle  0 -4.497500157e-015 -2.743230041e-014
rhumerus  -50.59200287 -40.60240173 -48.95879745
rradius  -5.16745672e-007 2.214343908e-008 45.66590118
rwrist  0.0003490542294 -0.002273720223 -154.1589966
rhand  -0 5.387740135 -6.090769768
rfingers  -90 -7.125020027 -90
rthumb  -84.08487081 -9.83121389 -58.75112214
rfemur  -10.24265766 16.06051636 13.37384415
rtibia  0.001755709294 -0.5562134981 18.26864433
rfoot  1.400764585 -21.29553223 -35.72754669
rtoes  3.906546714 19.63010248 -101.4899888
lfemur  -4.756521225 -15.5648489 -21.04679489
ltibia  4.605268002 -0.1653858274 10.69024372
lfoot  0.1937510371 -23.13674927 35.99149704
ltoes  -8.588581857 -18.13059707 -115.8894389
